<?xml version="1.0" standalone="no"?><!DOCTYPE svg PUBLIC "-//W3C//DTD SVG 1.1//EN" "http://www.w3.org/Graphics/SVG/1.1/DTD/svg11.dtd"><svg t="1689945148641" class="icon" viewBox="0 0 1024 1024" version="1.1" xmlns="http://www.w3.org/2000/svg" p-id="956" data-spm-anchor-id="a313x.7781069.0.i3" xmlns:xlink="http://www.w3.org/1999/xlink" width="200" height="200"><path d="M458.472727 956.481164c-23.901091-8.475927-32.660945-19.595636-39.344872-49.924655-2.974255-13.488873-6.344145-28.709236-7.493819-33.829236-3.188364-14.224291-21.699491-32.740073-51.684072-51.698037C281.209018 771.244218 238.173091 730.577455 215.174982 684.218182c-11.873745-23.929018-12.702255-29.547055-12.678982-86.109091 0.023273-64.847127 0.926255-68.961745 33.5872-153.451055 21.815855-56.445673 35.909818-83.321018 54.462836-103.880145 8.582982-9.509236 23.524073-30.901527 33.210182-47.541527 9.681455-16.64 22.155636-36.538182 27.722473-44.218182 5.566836-7.68 18.134109-28.625455 27.927273-46.545455 11.403636-20.852364 30.263855-44.651055 52.419491-66.117818 38.232436-37.036218 30.654836-34.369164 122.065454-42.980073 83.940073-7.912727 127.804509-9.960727 133.166546-6.218472 2.843927 1.982836 8.401455 9.890909 12.348509 17.570909 3.947055 7.68 13.856582 22.341818 22.016 32.581818 17.747782 22.272 25.348655 39.479855 32.367709 73.276509 4.002909 19.293091 10.714764 31.744 28.346182 52.596364 28.485818 33.6896 30.650182 50.799709 8.778472 69.208436-7.880145 6.628073-22.444218 13.349236-32.367709 14.936436-34.020073 5.441164-34.527418 7.293673-36.663854 133.743709-3.011491 177.8176-2.546036 202.123636 4.077381 214.504728 4.533527 8.475927 17.198545 15.150545 50.54371 26.642618 57.157818 19.702691 72.950691 30.147491 72.95069 48.2304 0 21.783273-15.909236 26.819491-56.05469 17.747782-56.301382-12.725527-62.645527-13.056-62.5664-3.248873 0.139636 16.616727 8.443345 21.382982 61.02109 35.006836 72.275782 18.734545 83.735273 33.684945 55.6032 72.527128-19.283782 26.614691-31.441455 33.773382-57.371927 33.773381-32.763345 0-49.636073-9.057745-91.657309-49.207854l-37.692509-36.012218-67.756218 3.081309c-37.264291 1.694255-71.773091 5.231709-76.692946 7.866182-14.671127 7.847564-12.139055 40.461964 4.891928 62.971345 16.044218 21.201455 17.873455 36.882618 5.092072 43.720146-12.567273 6.725818-45.661091 5.655273-67.798109-2.192291z" fill="#AB995C" p-id="957"></path><path d="M456.2944 943.448436c-14.010182-4.822109-17.2032-8.936727-24.152436-31.157527-4.4032-14.08-8.136145-30.533818-8.2944-36.566109-0.432873-16.681891-25.921164-45.428364-55.803346-62.938764-41.136873-24.110545-95.045818-65.396364-114.390109-87.607854-9.588364-11.008-23.733527-33.28-31.4368-49.496437-13.716945-28.872145-13.954327-30.612945-11.492073-83.781818 1.940945-41.853673 5.306182-62.301091 14.6944-89.209018 27.536291-78.973673 46.778182-123.159273 61.561019-141.344582 8.6016-10.579782 23.472873-31.362327 33.056581-46.173091a2767.248291 2767.248291 0 0 1 32.418909-48.872727c8.247855-12.069236 23.542691-37.934545 33.987491-57.483636 12.651055-23.673018 29.398109-45.563345 50.162037-65.554618l31.176145-30.01251 48.872727-5.399272c151.119127-16.700509 172.218182-16.444509 172.218182 2.089891 0 3.518836 7.251782 14.424436 16.118691 24.236218 19.060364 21.099055 32.442182 50.455273 37.036218 81.268363 2.690327 18.036364 8.145455 27.685236 28.611491 50.622837 30.040436 33.666327 32.195491 46.363927 10.160873 59.8016-8.322327 5.073455-21.797236 9.229964-29.952 9.239273-37.715782 0.046545-47.937164 16.249018-47.988364 76.064581L702.836364 443.001018l-18.580946-3.141818c-16.956509-2.862545-18.976582-2.0992-23.0912 8.727273-5.129309 13.488873 1.922327 40.033745 10.705455 40.308363 2.950982 0.093091 11.021964 4.803491 17.938618 10.472728l12.576582 10.305163 3.211636 93.090909c1.768727 51.2 4.8128 97.410327 6.763055 102.683928 2.620509 7.102836 15.993018 13.754182 51.469963 25.6 51.269818 17.124073 76.315927 30.836364 76.315928 41.793163 0 11.273309-23.249455 10.505309-66.420364-2.196945-46.638545-13.7216-60.779055-14.806109-64.558546-4.961746-8.015127 20.898909 15.955782 51.339636 44.269382 56.2176C807.098182 831.148218 851.781818 849.892073 851.781818 863.157527c0 1.289309-23.188945 31.990691-32.712145 43.3152-5.799564 6.898036-50.292364 7.814982-65.8944 1.359128-5.929891-2.448291-28.332218-21.131636-49.785018-41.518546l-39.005091-37.0688-40.122182-3.346618c-39.735855-3.314036-92.900073 1.903709-118.458182 11.6224-11.156945 4.240291-12.427636 7.074909-12.427636 27.806254 0 27.368727 5.445818 43.357091 21.108363 61.970619 6.3488 7.540364 10.351709 15.625309 8.904146 17.966545-3.714327 6.013673-47.816145 4.817455-67.099928-1.815273z m169.360291-667.001018c4.049455-1.554618 7.363491-4.696436 7.363491-6.981818 0-5.483055-35.923782-5.389964-39.316946 0.1024-4.691782 7.586909 17.598836 12.385745 31.953455 6.879418z" fill="#C3A121" p-id="958" data-spm-anchor-id="a313x.7781069.0.i1" class="selected"></path><path d="M456.2944 943.448436c-14.010182-4.822109-17.2032-8.936727-24.152436-31.157527-4.4032-14.08-8.136145-30.533818-8.2944-36.566109-0.432873-16.681891-25.921164-45.428364-55.803346-62.938764-41.136873-24.110545-95.045818-65.396364-114.390109-87.607854-9.588364-11.008-23.733527-33.28-31.4368-49.496437-13.716945-28.872145-13.954327-30.612945-11.492073-83.781818 1.940945-41.853673 5.306182-62.301091 14.6944-89.209018 27.536291-78.973673 46.778182-123.159273 61.561019-141.344582 8.6016-10.579782 23.472873-31.362327 33.056581-46.173091a2767.248291 2767.248291 0 0 1 32.418909-48.872727c8.247855-12.069236 23.542691-37.934545 33.987491-57.483636 12.651055-23.673018 29.398109-45.563345 50.162037-65.554618l31.176145-30.01251 48.872727-5.399272c150.825891-16.667927 172.218182-16.430545 172.218182 1.940945 0 3.435055 6.1952 13.302691 13.768146 21.927564 18.971927 21.6064 35.732945 57.115927 39.531054 83.725963 2.587927 18.157382 7.856873 27.526982 28.4672 50.622837 30.040436 33.666327 32.195491 46.363927 10.160873 59.8016-8.322327 5.073455-21.797236 9.229964-29.952 9.239273-24.901818 0.032582-38.609455 7.689309-41.732655 23.309963-1.554618 7.773091-4.654545 15.266909-6.879418 16.644655-2.234182 1.377745-4.054109 6.5024-4.054109 11.394327 0 5.985745-2.280727 8.010473-6.981818 6.209164-3.84-1.475491-6.981818-5.259636-6.981818-8.415419 0-3.155782-5.762327-8.3456-12.8-11.529309-7.037673-3.183709-23.593891-14.089309-36.784873-24.236218-36.845382-28.341527-37.254982-49.040291-1.414982-71.666036 26.512291-16.737745 24.813382-28.076218-4.724363-31.571782-12.730182-1.508073-29.249164-7.256436-36.705746-12.767418-18.543709-13.707636-27.992436-9.1648-46.159127 22.202182-15.034182 25.953745-15.141236 26.558836-7.689309 42.914909 28.816291 63.208727 34.490182 70.828218 61.332945 82.357527 8.317673 3.574691 15.127273 9.234618 15.127273 12.576582 0 3.346618-7.330909 14.647855-16.290909 25.115927s-16.290909 24.040727-16.290909 30.161455c0 14.368582-8.154764 22.285964-23.04 22.365091-6.530327 0.037236-16.546909 1.317236-22.267346 2.848581l-10.398254 2.788073 9.234618 11.738764c17.980509 22.858473 13.460945 27.405964-30.589673 30.794472-45.111855 3.467636-71.8848 12.548655-71.8848 24.389819 0 8.778473 35.504873 43.738764 44.422982 43.738763 3.104582 0 13.651782-3.351273 23.440291-7.437963 28.718545-11.999418 77.484218 2.020073 86.132364 24.762181 7.396073 19.456 22.262691 11.776 46.713018-24.133818 32.069818-47.104 44.222836-54.1696 54.318545-31.5904 3.151127 7.037673 8.815709 18.036364 12.590546 24.436364 4.980364 8.443345 6.884073 26.563491 6.935272 66.024727 0.032582 29.914764 1.987491 59.438545 4.333382 65.619782 3.248873 8.536436 11.901673 13.740218 36.072728 21.680873 104.997236 34.490182 128.386327 74.961455 25.89789 44.809309-46.6432-13.7216-60.779055-14.806109-64.558545-4.961746-8.019782 20.898909 15.951127 51.339636 44.264727 56.2176 37.413236 6.446545 92.886109 25.725673 95.790546 33.289309 1.764073 4.598691-0.930909 12.609164-6.609455 19.632873-5.268945 6.530327-12.008727 16.630691-14.973673 22.453527-6.688582 13.144436-20.228655 16.733091-52.898909 14.024146-23.086545-1.913018-27.643345-4.282182-49.822254-25.897891-53.583127-52.228655-59.931927-56.892509-77.488873-56.925091-9.211345-0.018618-23.026036-4.189091-30.706036-9.276509-7.68-5.087418-18.231855-9.262545-23.454255-9.276509-5.213091-0.018618-17.701236-4.221673-27.745745-9.341673-20.694109-10.551855-50.706618-12.739491-47.858037-3.490909 0.986764 3.202327 8.448 8.96 16.579491 12.8 8.131491 3.84 14.829382 9.169455 14.885237 11.845818 0.055855 2.671709-11.938909 7.912727-26.661237 11.636364-25.609309 6.479127-26.8288 7.470545-28.299636 22.942254-2.778764 29.258473 3.844655 55.631127 18.036364 71.79171 7.447273 8.485236 12.194909 16.774982 10.5472 18.42269-4.933818 4.933818-49.128727 2.885818-66.46691-3.081309z m206.373236-223.157527c5.231709-19.525818 2.964945-34.601891-6.488436-43.152291-12.674327-11.473455-20.112291-4.002909-14.298764 14.354618 2.383127 7.517091 5.590109 19.432727 7.130764 26.4704 3.393164 15.499636 9.8304 16.598109 13.656436 2.327273z" fill="#B19014" p-id="959"></path><path d="M467.5072 942.6944c-7.791709-5.897309-7.968582-6.856145-1.270691-6.981818 11.948218-0.232727 22.728145 5.008291 19.860946 9.648873-3.621236 5.864727-8.178036 5.208436-18.590255-2.667055z m-31.408873-26.065455c-4.077382-6.223127-8.871564-20.745309-10.658909-32.265309-4.254255-27.471127-23.868509-51.930764-57.3952-71.5776-41.136873-24.110545-95.045818-65.396364-114.390109-87.607854-9.588364-11.008-23.733527-33.28-31.4368-49.496437-13.7216-28.8768-13.954327-30.608291-11.482764-83.781818 2.606545-55.905745 6.637382-71.545018 42.6496-165.408582 17.338182-45.195636 22.872436-54.793309 48.44451-84.014545 12.460218-14.242909 27.666618-35.858618 33.792-48.034909 6.130036-12.1856 16.556218-29.481891 23.174981-38.441891 6.618764-8.96 20.233309-31.636945 30.254546-50.390109C400.770327 183.677673 418.071273 161.135709 437.527273 142.443055l30.254545-29.072291 74.472727-5.622691c40.96-3.090618 88.6272-6.735127 105.928146-8.098909 27.578182-2.169018 31.767273-1.4336 33.982836 5.957818 1.391709 4.635927 5.562182 14.359273 9.271855 21.6064 3.709673 7.247127 6.842182 21.908945 6.953891 32.581818 0.116364 10.672873 3.002182 25.688436 6.409309 33.368436l6.204509 13.963637 5.110691-12.8c2.806691-7.042327 6.837527-12.8 8.946036-12.8 7.773091 0 15.010909 11.52 15.010909 23.901091 0 20.614982 8.145455 36.352 32.721455 63.241309 14.261527 15.611345 23.133091 29.5936 23.133091 36.473018 0 15.080727-18.189964 26.200436-49.910691 30.501236-18.059636 2.452945-29.416727 7.046982-38.185891 15.453091-6.865455 6.576873-16.560873 11.952873-21.541236 11.948218-10.142255-0.004655-56.720291-30.841018-63.939491-42.323781-7.177309-11.422255-0.111709-31.669527 11.901672-34.103855C668.672 279.649745 670.254545 278.900364 670.254545 269.642473c0-5.199127-3.197673-15.629964-7.102836-23.179637-6.004364-11.617745-9.876945-13.735564-25.088-13.735563-9.895564 0-26.856727-3.970327-37.692509-8.820364-14.782836-6.618764-23.328582-7.810327-34.257455-4.784873-16.351418 4.533527-63.1296 53.108364-63.311127 65.745455-0.195491 13.726255 36.584727 78.308073 53.899637 94.631564 9.653527 9.104291 15.927855 19.065018 15.006254 23.826618-2.513455 13.074618-36.770909 34.681018-50.399418 31.790545-32.907636-6.972509-103.2704-13.907782-105.444073-10.3936-4.887273 7.912727 3.933091 29.346909 18.176 44.153018 7.968582 8.285091 12.930327 16.616727 11.031273 18.515782-1.908364 1.903709-14.331345 4.552145-27.610764 5.888l-24.152436 2.429673 0.512 17.221818c0.367709 12.404364 6.772364 26.391273 22.881745 49.9712 12.306618 18.013091 25.693091 33.824582 29.742546 35.146473 4.054109 1.321891 15.229673 9.862982 24.827345 18.981236 19.781818 18.785745 22.416291 34.816 9.728 59.275637-12.050618 23.2448-16.695855 88.897164-8.359563 118.178909 6.576873 23.105164 7.633455 24.222255 24.282763 25.6 22.016 1.824582 23.365818 13.349236 2.276073 19.395491-13.554036 3.886545-15.127273 6.125382-15.127273 21.536581 0 13.526109-2.327273 18.259782-10.919563 22.174255-6.004364 2.736873-15.127273 13.9264-20.279855 24.869236l-9.364945 19.893528z m329.555782-9.029818c-3.644509-5.888 9.313745-11.166255 18.6368-7.586909 3.84 1.470836 6.981818 4.840727 6.981818 7.479855 0 6.181236-21.806545 6.283636-25.618618 0.111709z m55.156364-43.864436c-14.6944-18.418036-23.202909-20.656873-32.186182-8.461964-5.687855 7.717236-6.935273 7.656727-23.738182-1.163636-19.493236-10.230691-52.740655-38.3488-52.740654-44.604509 0-2.173673 6.804945 0.009309 15.127272 4.854691 8.322327 4.850036 23.505455 10.2912 33.745455 12.101818 10.24 1.815273 24.901818 6.516364 32.581818 10.458764 7.68 3.9424 20.573091 6.749091 28.644073 6.241745 13.507491-0.847127 29.537745 8.671418 29.537745 17.538327 0 1.982836-3.988945 7.214545-8.8576 11.6224-8.485236 7.675345-9.425455 7.307636-22.109091-8.587636zM677.236364 833.163636c-1.582545-2.56-10.9056-4.654545-20.712728-4.654545-15.997673 0-21.131636-3.397818-49.761745-32.977455-34.955636-36.105309-52.5312-46.191709-87.780073-50.371491l-23.272727-2.760145 0.139636-27.2896c0.121018-23.04 1.871127-28.685964 11.240728-36.272873 7.400727-5.995055 15.099345-8.108218 23.13309-6.353454 7.228509 1.582545 18.720582-0.781964 28.797673-5.925237 17.887418-9.136873 47.197091-8.759855 54.528 0.698182 4.724364 6.097455 16.384 41.346327 24.636509 74.477382 3.518836 14.126545 11.189527 28.099491 20.452073 37.236364 8.145455 8.047709 17.026327 20.912873 19.721309 28.592872 2.699636 7.68 6.395345 17.631418 8.210618 22.109091 3.495564 8.634182-4.342691 11.566545-9.332363 3.490909z m102.4-61.049018c-15.36-5.026909-38.4-10.644945-51.2-12.483491-22.029964-3.165091-23.351855-4.151855-24.7296-18.432-1.335855-13.796073-0.335127-15.090036 11.664291-15.090036 21.801891 0 42.984727 8.052364 59.624727 22.658327 11.701527 10.277236 22.481455 14.685091 41.821091 17.1008 16.118691 2.010764 25.399855 5.259636 24.333963 8.513164-2.816 8.578327-31.618327 7.517091-61.514472-2.266764zM697.264873 667.927273c-1.782691-12.8-4.598691-30.878255-6.260364-40.178037-1.871127-10.458764-1.065891-18.115491 2.108509-20.075054 8.029091-4.961745 10.253964 6.884073 8.769164 46.699054-1.317236 35.388509-1.498764 35.919127-4.617309 13.554037z m-44.613818-72.866909c1.145018-3.444364 5.818182-6.981818 10.379636-7.866182 5.306182-1.033309 7.540364 0.646982 6.209164 4.654545-1.145018 3.444364-5.818182 6.981818-10.379637 7.866182-5.306182 1.028655-7.540364-0.646982-6.209163-4.654545z" fill="#946B03" p-id="960" data-spm-anchor-id="a313x.7781069.0.i2" class="selected"></path><path d="M431.322764 904.531782c-1.708218-1.703564-3.104582-11.175564-3.104582-21.047855 0-14.615273-3.630545-21.890327-19.572364-39.181963-10.765964-11.678255-28.043636-25.474327-38.4-30.659491-70.190545-35.141818-143.127273-109.321309-156.732509-159.404218-14.261527-52.498618 15.429818-178.566982 64.893673-275.525819 11.585164-22.704873 44.022691-47.104 36.473018-27.433891-4.482327 11.678255 14.443055 46.731636 36.775564 68.142546 31.264582 29.956655 33.233455 35.188364 18.850909 50.199273-10.128291 10.565818-11.3664 14.685091-7.908073 26.293527 7.354182 24.669091 22.295273 55.645091 29.868218 61.933382 4.077382 3.383855 15.127273 21.76 24.552727 40.838982 9.425455 19.083636 21.224727 36.877964 26.2144 39.549672 12.320582 6.595491 7.400727 25.586036-11.026618 42.528582-13.3632 12.292655-13.814691 13.972945-10.644945 39.358836 1.819927 14.582691 7.163345 34.988218 11.864436 45.344582 4.701091 10.351709 8.596945 25.911855 8.6528 34.573964 0.055855 8.662109 2.425018 23.505455 5.268946 32.991418 4.203055 14.033455 3.779491 19.912145-2.280728 31.627636-4.7104 9.1136-6.390691 19.628218-4.580072 28.68131 2.653091 13.2608-1.7408 18.618182-9.169455 11.189527z m398.792145-45.968291c-1.517382-3.951709-1.536-8.3968-0.055854-9.886255 4.701091-4.696436 17.068218 2.5088 17.068218 9.942109 0 9.290473-13.442327 9.243927-17.012364-0.055854z m-195.593309-45.889164c-4.668509-6.144-11.990109-17.5616-16.276945-25.362618-4.286836-7.801018-20.596364-22.146327-36.244946-31.874327-32.214109-20.037818-33.065891-24.645818-10.542545-57.120582 26.670545-38.437236 39.112145-29.8496 54.453527 37.576145 3.844655 16.896 12.460218 40.508509 19.144145 52.466037 16.849455 30.147491 8.503855 49.403345-10.533236 24.315345z m169.844364-38.544291c3.355927-1.345164 7.3728-1.1776 8.918109 0.367709 1.545309 1.545309-1.200873 2.643782-6.106764 2.443637-5.422545-0.223418-6.525673-1.326545-2.811345-2.811346zM439.482182 391.8848c-15.5648-6.898036-34.415709-16.956509-41.890909-22.351127-21.052509-15.197091-35.4304-21.922909-53.108364-24.864582-18.273745-3.039418-23.691636-14.717673-12.683636-27.3408 3.742255-4.291491 9.430109-16.1792 12.6464-26.4192 3.216291-10.24 12.557964-26.996364 20.759272-37.236364s20.596364-31.185455 27.5456-46.545454c7.633455-16.882036 23.072582-38.511709 39.028364-54.690909 26.321455-26.684509 38.325527-32.916945 38.325527-19.898182 0 5.399273 2.485527 5.920582 11.594473 2.4576 16.919273-6.427927 25.641891-1.242764 25.641891 15.243636 0 7.847564 2.988218 17.570909 6.637382 21.611055 5.776291 6.390691 5.492364 9.774545-2.169018 25.967709-4.840727 10.24-8.876218 24.226909-8.964655 31.0784-0.200145 15.918545-20.805818 33.154327-34.634473 28.974545-16.449164-4.971055-18.432-4.5056-20.447418 4.817455-1.289309 5.971782 3.062691 13.102545 12.9024 21.131636 12.055273 9.835055 15.104 16.030255 16.197818 32.875055 1.829236 28.183273 1.684945 27.741091 9.192728 27.741091 3.658473 0 10.938182 5.762327 16.193163 12.8 5.250327 7.037673 14.228945 17.482473 19.954037 23.207563 14.429091 14.4384 6.171927 21.257309-27.592146 22.774691-20.843055 0.935564-33.149673-1.591855-55.128436-11.333818zM428.218182 277.327127C428.218182 264.489891 422.460509 256 413.756509 256c-10.021236 0-11.9808 13.586618-3.2256 22.341818 7.619491 7.619491 17.687273 7.042327 17.687273-1.014691z m48.2304-92.429963c7.582255-5.538909 7.363491-6.646691-3.272146-16.64-12.962909-12.176291-19.670109-7.186618-15.0528 11.208145 3.230255 12.879127 6.725818 13.917091 18.324946 5.431855zM495.709091 176.872727c1.582545-2.56 0.656291-4.654545-2.052655-4.654545S488.727273 174.312727 488.727273 176.872727s0.9216 4.654545 2.052654 4.654546 3.351273-2.094545 4.929164-4.654546z m158.254545 154.866037c-26.870691-14.894545-33.829236-31.604364-15.113309-36.305455 8.019782-2.010764 18.087564 1.852509 36.375273 13.945018 15.676509 10.374982 29.705309 16.2304 36.919855 15.420509 10.770618-1.210182 11.515345-2.862545 10.030545-22.2208-2.127127-27.727127-6.870109-35.467636-28.495127-46.498909-9.988655-5.096727-21.201455-13.614545-24.925091-18.930036-5.2224-7.447273-12.483491-9.900218-31.725382-10.705455-27.415273-1.140364-56.026764-15.3088-45.018764-22.290618 11.482764-7.279709 56.576-4.412509 71.261091 4.533527 7.68 4.677818 23.784727 9.849018 35.7888 11.492073l21.820509 2.978909 1.452219-14.996945c2.066618-21.4016 15.225018-20.335709 15.979054 1.293963 0.311855 8.96 0.837818 18.920727 1.163636 22.137019 0.325818 3.211636 13.163055 18.725236 28.523055 34.471563 17.882764 18.338909 27.927273 32.512 27.927273 39.428655 0 15.229673-19.767855 26.605382-53.280582 30.654836-15.494982 1.875782-36.552145 4.552145-46.792146 5.953164-14.7456 2.010764-23.458909-0.139636-41.890909-10.361018zM533.680873 205.963636c-1.1776-1.917673-2.871855-10.821818-3.765528-19.781818-1.489455-14.959709-0.525964-16.416582 11.831855-17.826909 13.847273-1.582545 23.021382 6.292945 19.269818 16.5376-1.145018 3.127855 2.103855 8.620218 7.223855 12.204218 9.178764 6.432582 9.160145 6.558255-1.359128 9.374255-14.675782 3.933091-30.626909 3.6864-33.200872-0.507346z m137.681454-34.504145C664.366545 164.468364 663.784727 153.6 670.394182 153.6c5.622691 0 10.775273 11.459491 8.378182 18.641455-1.107782 3.328-3.565382 3.072-7.414691-0.781964z m-152.529454-27.508364c-8.545745-18.944-8.545745-19.479273 0.093091-25.795491 11.682909-8.541091 41.639564-8.247855 48.877381 0.474764 8.741236 10.528582 1.936291 28.718545-12.720872 34.024727a698.884655 698.884655 0 0 0-20.177455 7.642764c-5.408582 2.206255-9.658182-2.113164-16.0768-16.346764z" fill="#8A5600" p-id="961"></path><path d="M833.508073 859.177891c-3.723636-4.491636-3.909818-7.521745-0.572509-9.583709 6.5024-4.016873 14.191709 1.103127 14.191709 9.444073 0 8.545745-6.586182 8.610909-13.6192 0.139636z m-426.454109-17.1008c-10.118982-10.454109-26.7776-23.254109-37.0176-28.439273-68.561455-34.699636-143.522909-110.317382-155.713164-157.072291-4.649891-17.831564-3.337309-75.236073 1.913018-83.735272 2.0992-3.397818 5.9904-1.731491 11.319855 4.85469 6.786327 8.378182 9.741964 9.160145 17.975854 4.752291 15.099345-8.080291 18.171345-6.656 26.274909 12.180946 4.133236 9.602327 9.448727 20.596364 11.808582 24.436363 2.359855 3.84 5.4272 10.6496 6.8096 15.127273 3.476945 11.245382 8.764509 10.235345 23.505455-4.5056 10.114327-10.114327 12.097164-15.476364 9.904872-26.763636-1.512727-7.763782-4.068073-23.1936-5.687854-34.290037-1.666327-11.436218-5.953164-21.331782-9.895564-22.849163C300.288 542.72 274.618182 488.852945 274.618182 475.196509 274.618182 465.570909 286.086982 451.490909 293.925236 451.490909c10.910255 0 31.892945 27.480436 31.892946 41.765236 0 8.005818 3.025455 20.410182 6.730473 27.568873 3.705018 7.163345 5.687855 17.026327 4.407854 21.922909-1.284655 4.9152 4.030836 20.815127 11.883055 35.5328 7.819636 14.647855 14.214982 29.4912 14.214981 32.982109s4.4032 10.333091 9.783855 15.2064c20.517236 18.562327 24.464291 33.624436 23.375127 89.195055-1.000727 51.078982-0.754036 52.498618 9.862982 56.534109 18.459927 7.019055 23.673018 17.133382 20.554473 39.880145-1.601164 11.696873-0.861091 21.899636 1.703563 23.486837 5.422545 3.351273 6.144 25.525527 0.82851 25.525527-2.038691 0-11.990109-8.555055-22.109091-19.013818z m229.357381-35.002182c-1.861818-1.861818-3.393164-6.600145-3.393163-10.528582 0-5.236364 1.377745-5.757673 5.180509-1.954909 2.843927 2.843927 4.375273 7.586909 3.393164 10.528582-0.982109 2.941673-3.314036 3.826036-5.18051 1.954909z m-52.619636-54.202182c-12.288-8.322327-23.026036-17.296291-23.854545-19.949382-2.881164-9.234618 25.949091-48.705164 35.579345-48.705163 11.091782 0 15.406545 7.856873 23.417018 42.658909 10.226036 44.404364 1.545309 50.827636-35.141818 25.995636z m-338.809018-255.376291c-9.695418-11.319855-7.363491-36.547491 4.272873-46.201018 9.192727-7.633455 10.253964-5.911273 11.547927 18.813673 2.117818 40.322327-0.646982 45.111855-15.825455 27.387345zM326.981818 439.100509c-6.460509-2.606545-8.098909-20.191418-1.885091-20.191418 4.5056 0 19.339636 15.453091 19.339637 20.149527 0 3.5328-8.750545 3.551418-17.454546 0.041891zM283.927273 372.912873c0-2.56 2.094545-5.948509 4.654545-7.531055 2.56-1.582545 4.654545-0.781964 4.654546 1.778037s-2.094545 5.948509-4.654546 7.531054c-2.56 1.582545-4.654545 0.781964-4.654545-1.778036z m370.036363-43.752728c-13.777455-7.861527-18.618182-13.591273-18.618181-22.043927 0-17.040291 11.892364-16.323491 35.197672 2.122473 40.247855 31.855709 60.811636 27.219782 55.235491-12.4416-4.9152-34.9184-7.624145-39.610182-30.678109-53.122327-11.338473-6.642036-19.767855-12.925673-18.729891-13.958982 1.033309-1.033309 14.033455-0.451491 28.890764 1.293963 23.882473 2.806691 30.031127 5.892655 53.024582 26.586764 32.395636 29.156073 38.656 37.771636 36.794181 50.604218-2.485527 17.082182-24.980945 25.586036-75.952872 28.718546-42.821818 2.629818-48.034909 2.010764-65.163637-7.759128zM415.148218 205.544727c-5.306182-10.984727-7.312291-21.2992-5.208436-26.763636 4.696436-12.1856 45.251491-50.962618 49.189236-47.029527 1.745455 1.750109 0.521309 11.217455-2.722909 21.047854-8.084945 24.510836-5.175855 34.504145 12.436946 42.686837 8.266473 3.84 15.071418 8.313018 15.127272 9.942109C484.165818 210.990545 452.449745 223.418182 438.095127 223.418182c-11.999418 0-15.709091-2.890473-22.946909-17.873455z m187.112727 9.723346c-7.759127-7.759127-6.991127-8.331636 16.1792-12.027346 19.400145-3.095273 26.670545-2.345891 35.8912 3.695709 16.472436 10.793891 9.942109 16.477091-18.930036 16.477091-17.594182 0-27.401309-2.411055-33.140364-8.145454z m125.6448-3.197673c-3.667782-9.555782 1.498764-22.6304 7.479855-18.930036 2.578618 1.591855 4.687127 6.837527 4.687127 11.654981 0 11.4688-8.587636 16.602764-12.166982 7.275055z m-251.261672-54.541964c-1.6896-2.736873-0.186182-6.800291 3.341963-9.034472 9.225309-5.846109 13.395782-5.138618 13.395782 2.276072 0 8.238545-12.660364 13.349236-16.737745 6.7584z m47.4112-20.815127c-3.923782-10.216727 5.287564-20.354327 18.492509-20.354327 14.7968 0 18.539055 8.098909 8.750545 18.911418-9.946764 10.994036-23.309964 11.701527-27.243054 1.442909z" fill="#734C01" p-id="962"></path><path d="M361.490618 805.5296c-12.381091-7.261091-29.137455-19.488582-37.236363-27.173236-8.098909-7.68-21.294545-17.277673-29.323637-21.317819-16.151273-8.126836-63.320436-67.872582-74.253963-94.035781-7.624145-18.250473-4.7616-39.349527 4.133236-30.454691 2.820655 2.820655 10.579782 5.124655 17.245091 5.124654 12.520727 0 30.957382 16.481745 50.757818 45.381818 5.701818 8.322327 13.204945 15.127273 16.672582 15.127273 3.462982 0 15.406545-10.402909 26.530909-23.119127 15.9744-18.269091 22.369745-22.560582 30.454691-20.442764 12.809309 3.351273 17.054255 16.095418 15.285527 45.889164-3.4304 57.623273-2.364509 75.008 5.632 91.741091 14.927127 31.255273 9.495273 34.038691-25.897891 13.279418z m226.020073-58.740364c-5.799564-4.058764-10.347055-12.148364-10.347055-18.399418 0-15.164509 9.472-34.862545 16.765673-34.862545 11.487418 0 12.036655 10.105018 1.1776 21.662254l-10.961454 11.668946 12.823272 9.337018c7.056291 5.138618 11.641018 11.254691 10.198109 13.591273-3.677091 5.957818-7.763782 5.334109-19.656145-2.997528z m151.258764-419.309381c-6.078836-9.839709-8.210618-37.748364-3.774837-49.41731 6.0416-15.895273 16.444509-16.211782 38.576873-1.172945 21.643636 14.708364 26.4192 28.3136 14.214982 40.517818-9.681455 9.681455-44.795345 16.896-49.012364 10.072437z m-92.439273-10.626328c-10.044509-8.192-10.272582-9.239273-2.667055-12.199563 5.189818-2.020073 11.757382-0.130327 17.454546 5.026909 18.245818 16.514327 4.715055 23.077236-14.782837 7.172654z m-31.818473-98.736872c-9.402182-3.658473-10.258618-5.282909-4.654545-8.829673 9.388218-5.9392 35.877236-5.618036 39.642763 0.479418 3.7888 6.130036 2.736873 7.042327-11.8272 10.258618-6.4 1.414982-16.821527 0.558545-23.161018-1.908363z m-178.5344-11.766691c-4.412509-4.407855-3.863273-38.786327 0.6144-38.786328 2.048 0 6.749091 7.856873 10.449455 17.454546 3.700364 9.602327 7.437964 19.027782 8.303709 20.945454 1.950255 4.319418-15.094691 4.6592-19.367564 0.386328z" fill="#5A3701" p-id="963"></path></svg>